<?xml version="1.0" encoding="UTF-8"?>
<svg id="Layer_1" xmlns="http://www.w3.org/2000/svg" version="1.1" xmlns:xlink="http://www.w3.org/1999/xlink" viewBox="0 0 800 800">
  <!-- Generator: Adobe Illustrator 29.3.1, SVG Export Plug-In . SVG Version: 2.1.0 Build 151)  -->
  <path d="M487.5,720.8H211c-3.3,0-8.4-4.4-9.7-7.4l-62.6-112.6h218.1l130.6,120Z"/>
  <path d="M487.5,80.7l-130.6,120h-218.1l62.6-112.6c1.3-3,6.4-7.4,9.7-7.4h276.5Z"/>
  <path d="M510,704.9l-127.1-116.1,270.9-172.1c1,1,4.8,2.2,4.4,3.6l-148.2,284.6Z"/>
  <path d="M658.3,382c-1.9.4-3.8,3.3-5.7,2.6l-269.7-172,127.1-116.1,148.3,285.4Z"/>
  <polygon points="346.6 314.5 346.6 486.8 291.5 504.8 177.9 400.5 291.2 296.8 346.6 314.5"/>
  <polygon points="373.3 323.2 609.6 400.5 373.3 478.3 373.3 323.2"/>
  <polygon points="373.3 506.4 556.6 446.2 373.3 563.3 373.3 506.4"/>
  <polygon points="373.3 238.2 556.2 354.7 373.3 295.1 373.3 238.2"/>
  <polygon points="327.5 574.1 165.8 574.1 284.8 535.1 327.5 574.1"/>
  <polygon points="327.5 227.4 284.7 266.4 165.8 227.4 327.5 227.4"/>
  <polygon points="346.6 514.9 346.6 555.3 314.1 525.4 346.6 514.9"/>
  <polygon points="346.6 286.6 314.1 276.1 346.6 246.2 346.6 286.6"/>
</svg>