<?xml version="1.0" encoding="UTF-8"?>
<svg id="Layer_1" xmlns="http://www.w3.org/2000/svg" version="1.1" viewBox="0 0 2238 2500">
  <!-- Generator: Adobe Illustrator 29.3.1, SVG Export Plug-In . SVG Version: 2.1.0 Build 151)  -->
  <circle cx="987.8" cy="312.9" r="140.4" transform="translate(68 790.1) rotate(-45)"/>
  <circle cx="2016.8" cy="2105.8" r="221.2"/>
  <circle cx="97.6" cy="2105.8" r="97.6" transform="translate(-2010.3 2133.3) rotate(-88.1)"/>
  <path d="M987,601.6c-472.9,0-855.8,382.9-855.8,855.8s382.9,855.8,855.8,855.8,855.8-382.9,855.8-855.8-382.9-855.8-855.8-855.8h0ZM407.3,1124.9l578.2-334.1,576.7,334.1v302.1l-265.4-85.4v-62.5l-311.2-180-228.8,132.7,805.5,257.8v302.1l-578.2,334.1-578.2-332.6v-303.6l267,83.9v62.5l311.2,180,231.9-134.2-808.5-256.3v-300.5Z"/>
</svg>